<svg width="600" height="180" viewBox="0 0 200 60" xmlns="http://www.w3.org/2000/svg"><rect width="200" height="60" rx="5" fill="#000000"/><g opacity="0.3"><line x1="20" y1="0" x2="5" y2="60" stroke="#00FF41" stroke-width="0.5"/><line x1="40" y1="0" x2="25" y2="60" stroke="#00FF41" stroke-width="0.5"/><line x1="60" y1="0" x2="45" y2="60" stroke="#00FF41" stroke-width="0.5"/><line x1="80" y1="0" x2="65" y2="60" stroke="#00FF41" stroke-width="0.5"/><line x1="100" y1="0" x2="85" y2="60" stroke="#00FF41" stroke-width="0.5"/><line x1="120" y1="0" x2="105" y2="60" stroke="#00FF41" stroke-width="0.5"/><line x1="140" y1="0" x2="125" y2="60" stroke="#00FF41" stroke-width="0.5"/><line x1="160" y1="0" x2="145" y2="60" stroke="#00FF41" stroke-width="0.5"/><line x1="180" y1="0" x2="165" y2="60" stroke="#00FF41" stroke-width="0.5"/><line x1="200" y1="0" x2="185" y2="60" stroke="#00FF41" stroke-width="0.5"/></g><polygon points="30,20 30,40 45,30" fill="url(#playGradient)" stroke="#00FF41" stroke-width="1"/><defs><linearGradient id="playGradient" x1="0%" y1="0%" x2="100%" y2="100%"><stop offset="0%" stop-color="#00FF41"/><stop offset="100%" stop-color="#7AFFA7"/></linearGradient><filter id="glow" x="-20%" y="-20%" width="140%" height="140%"><feGaussianBlur stdDeviation="2" result="blur"/><feComposite in="SourceGraphic" in2="blur" operator="over"/></filter></defs><rect x="50" y="15" width="140" height="30" rx="2" fill="#333333"/><rect x="55" y="10" width="5" height="40" fill="#000000"/><rect x="65" y="10" width="5" height="40" fill="#000000"/><rect x="180" y="10" width="5" height="40" fill="#000000"/><rect x="170" y="10" width="5" height="40" fill="#000000"/><circle cx="155" cy="15" r="1.5" fill="#8A2BE2" opacity="0.7"/><circle cx="163" cy="20" r="1.5" fill="#8A2BE2" opacity="0.7"/><circle cx="171" cy="25" r="1.5" fill="#8A2BE2" opacity="0.7"/><circle cx="179" cy="15" r="1.5" fill="#8A2BE2" opacity="0.7"/><circle cx="187" cy="20" r="1.5" fill="#8A2BE2" opacity="0.7"/><text x="75" y="35" font-family="'Segoe UI', Arial, sans-serif" font-weight="bold" font-size="16" fill="#00FF41" filter="url(#glow)" letter-spacing="1" style="text-shadow: rgb(0, 255, 65) 0px 0px 5px;">TRAILER PARK</text><line x1="75" y1="40" x2="170" y2="40" stroke="#00FF41" stroke-width="2" stroke-dasharray="1,1"/><text x="160" y="50" font-family="'Segoe UI', Arial, sans-serif" font-style="italic" font-size="8" fill="#8A2BE2" opacity="0.8">ANIME</text></svg> 